<?xml version="1.0" encoding="UTF-8"?>
<svg id="Layer_1" data-name="Layer 1" xmlns="http://www.w3.org/2000/svg" version="1.1" viewBox="0 0 566.9 566.9">
  <defs>
    <style>
      .cls-1 {
        fill: #273a60;
        stroke-width: 0px;
      }
    </style>
  </defs>
  <g>
    <path class="cls-1" d="M282.8,299.8c-20.8,0-27.8,0-38.1-2.9-3.6-1.3-10-3-14.6-10.4-8.6-14.7-8.6-42.2-8.6-55.5s0-36.7,8.6-51.2c4.6-7.5,11-9.3,14.6-10.6,10.3-2.7,17.3-2.7,38.1-2.7s27.2,0,37.8,2.7c3.6,1.3,9.8,3,14.1,10.6,9.3,14.5,9.3,39.5,9.3,52.8s0,39.2-9.3,53.9c-4.3,7.3-10.5,9.1-14.1,10.4-10.5,2.9-17.5,2.9-37.8,2.9M282.8,240.5c17.4,0,17.2,0,17.2,5.7v36.1h24.6v-99.9h-24.6v30c0,5.9.3,5.9-17.2,5.9s-17.7,0-17.7-5.9v-30h-24.2v99.9h24.2v-36.1c0-5.7,0-5.7,17.7-5.7M282.7,325.4c17.8,0,50.1,1.7,68.5-18.8,8.9-10,11.2-16.5,15.7-30.6,3.9-12.3,3.4-19.7,4.6-33.3.4-10,.9-22-2.5-39.2-3.7-19.1-6.6-29.5-15.3-38.3,11.6-5.9,13.2-23.3,11.6-35.1,0,0-8.9-4.4-14.8-6.6-6.5-2.4-16.9-5-16.9-5,0,9.3,1.1,23.4-5.9,28.1-7.1,4.1-24.6,0-27.4-8.9-.9-2.7-1.8-12,0-23.6-2.5-.5-9.4-2.1-17.8-2.1s-15,1.6-17.5,2.1c1.2,11.6.9,20.9,0,23.6-3,8.9-20.3,13.1-27.3,8.9-7.7-4.7-5.9-18.8-5.9-28.1,0,0-11.3,2.8-18.2,5.4-5.6,2.1-14.1,6.3-14.1,6.3-1.8,11.8,0,29.2,11.6,35.1-8.7,8.8-11.6,19.1-15.3,38.3-3,17.2-2.3,29.2-2.1,39.2.9,13.6.9,20.9,4.1,33.3,4.6,14.1,7.4,20.8,16.7,30.6,19,20,50.3,18.8,68.1,18.8"/>
    <path class="cls-1" d="M257.9,410.2c-2.8.4-6.1,3.6-7.5,7.3v-6.2h-8v35.3h8.5v-16.8c0-3.8.2-6.7,2-9,1.3-1.7,3.7-3.4,6-3.3,2.3,0,3.7.5,3.7.5v-7.6s-2.3-.5-4.7-.2"/>
    <path class="cls-1" d="M206.8,351.7h-8.5v20.7c0,5.9-2.3,8.8-7.1,8.8s-3.2-.7-4.2-1.7c-1.2-1.2-1.8-3.3-1.8-6.3v-21.5h-8.5v22.2c0,4.9,1.1,8.4,3.4,10.7,2.2,2.2,4.9,3.3,9.3,3.3s6.9-2.1,9.1-4.9v4h8.4v-35.3Z"/>
    <path class="cls-1" d="M339.5,361.2c0-2.6-.9-4.9-2.6-6.6-2.4-2.5-5.9-3.9-11-3.9-5,0-13.5,1.1-14.5,10.7h8.5c-.1-4.5,5.6-4.1,5.6-4.1,1.8,0,3.5.6,4.7,1.5.7.6,1.2,1.5,1.3,3,0,2.4-1,3.5-9,4.3-6.2.6-13.5,2.3-13.5,11.2s1,5.3,2.8,7.1c2.2,2.2,5.5,3.4,9.4,3.4s8-1.3,10.6-4.2l.4,3.3h8.2v-1.3c-1.1-.8-.8-4.3-.8-4.3v-20.1ZM317.4,377.1c-.2-2.7,1.3-4.6,5.3-5.3,1-.2,2.1-.3,3.2-.5,1.6-.2,3.5-.7,5.1-1.8v5.4c0,4.4-4.3,6-7.5,6-3.2,0-5.9-1.2-6.1-3.9"/>
  </g>
  <polygon class="cls-1" points="162.5 339.9 162.5 357.9 143.2 357.9 143.2 339.9 133.9 339.9 133.9 387 143.2 387 143.2 366.1 162.5 366.1 162.5 387 171.8 387 171.8 339.9 162.5 339.9"/>
  <path class="cls-1" d="M225.8,381.1c-3.6,0-6.5-1.5-7-4.7h-8.6c.4,8.9,9.3,11.6,15.5,11.5,6.2-.1,9-1.6,11.7-4.4,1.9-1.9,2.9-4.4,2.9-7.3,0-6.9-5.2-9.1-11.1-10.5l-1.9-.4c-4.6-.9-8.4-1.8-8.2-4.5.2-2.7,3.1-3.2,5.4-3.3,2.3,0,4.1.3,5.5,3h8.8c-.9-6.8-7.1-9.8-13.8-9.7-6.5,0-14.3,2.7-14.3,10.3s4.9,9.3,10.9,10.6c.8.2,1.6.4,2.4.5,4.4.9,7.7,1.8,7.8,4.7,0,2.9-2.4,4.1-6,4.2"/>
  <polygon class="cls-1" points="311.2 351.7 302.4 351.7 294.8 378.9 287 351.7 277.8 351.7 290 387 299.1 387 311.2 351.7"/>
  <g>
    <path class="cls-1" d="M359.7,350.6c-2.8.4-6.1,3.6-7.5,7.3v-6.2h-8v35.3h8.5v-16.8c0-3.8.2-6.7,2-9,1.3-1.7,3.7-3.4,6-3.3,2.3,0,3.7.5,3.7.5v-7.6s-2.3-.5-4.7-.2"/>
    <path class="cls-1" d="M397.8,362.9c0-3.7-1.1-6.6-3.2-8.7-2.2-2.2-5.3-3.4-9.3-3.4s-7.3,2.2-9.8,6.2v-5.3h-8v35.3h8.5v-20.8c0-2.5.5-4.9,2.1-6.5,1.4-1.4,3.4-2.2,5.8-2.2,3.9,0,5.2,2.3,5.4,7.4v22.1h8.5v-24.1Z"/>
    <path class="cls-1" d="M431,361.3c0-2.6-.9-4.9-2.6-6.6-2.4-2.5-6.5-3.9-11.5-3.9-5,0-13.5,1.1-14.5,10.7h8.5c-.1-4.5,5.6-4.1,5.6-4.1,1.8,0,4,.6,5.2,1.5.7.6,1.2,1.5,1.3,3,0,2.4-1.1,3.5-9,4.3-6.2.6-13.5,2.3-13.5,11.2s1,5.3,2.8,7.1c2.2,2.2,5.5,3.4,9.4,3.4s8-1.3,10.6-4.2l.4,3.3h8.2v-1.3c-1.1-.8-.8-4.3-.8-4.3v-20.1ZM409,377.1c-.2-2.7,1.3-4.6,5.3-5.2,1-.2,2.1-.3,3.2-.5,1.6-.2,3.5-.7,5.1-1.8v5.4c0,4.4-4.3,6-7.5,6-3.2,0-5.9-1.2-6.1-3.9"/>
    <path class="cls-1" d="M276.2,396.6v-44.8s-8.1,0-8.1,0v4.4c-2.2-3-5.2-5.4-9.7-5.4-10.1,0-16,7.2-16,18.8s1.9,11.2,5.1,14.4c2.6,2.6,5.6,4,9.7,4s8-2.1,10.5-5.3v13.9h8.5ZM259.4,381.1c-2.4,0-3.9-.8-5.5-2.3-2-2-3.1-5.4-3.1-9.4s1.2-7.2,3.3-9.4c1.5-1.5,3-2.3,5.2-2.3,5,0,7.6,3.2,8.4,9,.1.9.2,4.1.1,4.7-.6,6.2-3.2,9.6-8.5,9.6"/>
    <path class="cls-1" d="M328.4,411.3h-8.5v20.7c0,5.9-2.3,8.8-7.1,8.8s-3.2-.7-4.2-1.7c-1.2-1.2-1.8-3.3-1.8-6.3v-21.5h-8.5v22.2c0,4.9,1.1,8.4,3.4,10.7,2.2,2.2,4.9,3.3,9.3,3.3s6.9-2.1,9.1-4.9v4h8.4v-35.3Z"/>
    <path class="cls-1" d="M271.3,428.6c0-5.5,1.8-11.4,7.7-11.4s7.8,5.9,7.8,11.4-1.8,11.5-7.8,11.5-7.7-6.1-7.7-11.5M262.6,428.6c0,10.8,6.5,18.5,16.5,18.5s16.5-7.7,16.5-18.5-6.5-18.4-16.5-18.4-16.5,7.6-16.5,18.4"/>
    <path class="cls-1" d="M333.2,456v-44.8s8.1,0,8.1,0v4.4c2.2-3,5.2-5.4,9.7-5.4,10.1,0,16,7.2,16,18.8s-1.9,11.2-5.1,14.4c-2.6,2.6-5.6,4-9.7,4s-8-2.1-10.5-5.3v13.9h-8.5ZM349.9,440.4c2.4,0,3.9-.8,5.5-2.3,2-2,3.1-5.4,3.1-9.4s-1.2-7.2-3.3-9.4c-1.5-1.5-3-2.3-5.2-2.3-5,0-7.6,3.2-8.4,9-.1.9-.2,4.1-.1,4.7.6,6.2,3.2,9.6,8.5,9.6"/>
    <path class="cls-1" d="M231.6,446.8h6v-24.7h-17.1v7.3h8.5c-.5,6.4-4.1,9.9-10.2,9.9s-11.7-7.8-11.7-15.4,3.2-15.8,11.7-15.8,7.8,1.9,8.9,7h9c-1-10.5-9.2-15.5-17.9-15.5-13.3,0-21.1,10.7-21.1,24.4s7.8,24,21.1,24,8.5-1.7,11.8-6.3l1,5.2Z"/>
  </g>
</svg>